<?xml version="1.0" standalone="no"?>
<!DOCTYPE svg PUBLIC "-//W3C//DTD SVG 20010904//EN"
 "http://www.w3.org/TR/2001/REC-SVG-20010904/DTD/svg10.dtd">
<svg version="1.0" xmlns="http://www.w3.org/2000/svg"
 width="309.000000pt" height="309.000000pt" viewBox="0 0 309.000000 309.000000"
 preserveAspectRatio="xMidYMid meet">
<metadata>
Created by potrace 1.11, written by Peter Selinger 2001-2013
</metadata>
<g transform="translate(0.000000,309.000000) scale(0.100000,-0.100000)"
fill="#000000" stroke="none">
<path d="M0 1545 l0 -1545 1545 0 1545 0 0 1545 0 1545 -1545 0 -1545 0 0
-1545z m854 701 c69 -21 123 -60 157 -113 43 -68 40 -73 -39 -73 -61 0 -71 3
-93 26 -36 39 -72 54 -131 54 -65 0 -111 -22 -152 -73 -27 -34 -31 -48 -34
-116 -5 -107 23 -162 102 -203 31 -16 53 -19 103 -16 70 4 103 23 141 78 38
56 34 59 -85 62 l-108 3 -3 48 -3 47 175 0 176 0 0 -64 c0 -123 -91 -243 -209
-278 -76 -22 -177 -16 -242 14 -195 89 -247 346 -104 516 73 87 225 125 349
88z m946 -61 l0 -65 55 0 55 0 0 -50 0 -50 -55 0 -56 0 3 -142 3 -143 53 -3
52 -3 0 -55 0 -54 -67 0 c-83 0 -129 21 -155 70 -15 29 -18 58 -18 182 l0 148
-30 0 c-29 0 -30 1 -30 50 0 49 1 50 30 50 l30 0 0 65 0 65 65 0 65 0 0 -65z
m-365 35 c41 -25 65 -75 65 -134 0 -40 3 -46 20 -46 12 0 32 -11 45 -25 25
-24 25 -27 25 -187 0 -132 -3 -168 -16 -186 -15 -21 -20 -22 -214 -22 -194 0
-199 1 -214 22 -13 18 -16 54 -16 189 l0 168 26 20 c24 19 40 21 145 21 l119
0 0 33 c0 52 -11 77 -36 83 -42 11 -74 -4 -81 -36 -5 -27 -9 -30 -44 -30 -33
0 -39 3 -39 21 0 36 32 90 64 110 41 25 110 25 151 -1z m826 -102 c46 -13 113
-68 134 -109 21 -40 38 -126 31 -154 l-6 -25 -185 -2 -184 -3 18 -40 c32 -72
123 -89 184 -35 30 26 42 30 96 30 36 0 61 -4 61 -10 0 -24 -32 -70 -71 -103
-73 -63 -203 -74 -291 -25 -134 75 -166 283 -62 407 59 70 175 99 275 69z
m-2019 -639 l3 -192 83 107 83 106 80 0 c43 0 79 -3 79 -6 0 -4 -48 -60 -106
-126 -58 -65 -104 -123 -102 -127 2 -5 48 -59 103 -121 55 -62 102 -116 103
-121 2 -5 -32 -9 -76 -9 l-79 0 -84 106 -84 106 -3 -106 -3 -106 -64 0 -65 0
0 333 c0 184 3 337 7 340 3 4 32 7 64 7 l59 0 2 -191z m683 6 c82 -33 132
-108 142 -210 l6 -65 -187 0 c-205 0 -202 1 -171 -60 33 -65 136 -79 182 -26
19 23 30 26 88 26 77 0 81 -8 32 -71 -91 -120 -286 -127 -385 -14 -21 24 -44
61 -50 83 -15 50 -15 144 0 193 13 47 68 113 110 135 65 33 164 37 233 9z
m535 -13 c64 -32 104 -87 119 -168 19 -97 25 -94 -178 -94 -98 0 -180 -3 -184
-6 -9 -10 13 -60 37 -83 45 -42 142 -36 167 10 8 16 22 19 79 19 39 0 70 -3
70 -7 0 -3 -11 -25 -24 -48 -68 -114 -233 -145 -359 -66 -138 88 -136 347 4
433 84 53 174 56 269 10z m560 11 c83 -34 133 -123 134 -238 1 -175 -138 -296
-288 -251 -27 8 -62 27 -77 42 l-29 28 0 -157 0 -157 -65 0 -65 0 0 375 0 375
65 0 65 0 0 -35 0 -36 38 30 c62 50 138 58 222 24z m526 -9 c80 -38 124 -114
124 -216 l0 -48 -186 0 -186 0 6 -27 c4 -16 22 -43 41 -60 47 -45 100 -46 148
-3 31 27 42 30 101 30 l66 0 -11 -27 c-30 -80 -126 -137 -229 -136 -117 1
-204 62 -235 167 -72 241 137 426 361 320z m304 -13 l5 -33 20 22 c26 29 68
50 100 50 24 0 25 -2 25 -65 l0 -65 -35 0 c-47 0 -94 -25 -105 -56 -6 -14 -10
-93 -10 -175 l0 -149 -65 0 -65 0 0 255 0 256 63 -3 62 -3 5 -34z"/>
<path d="M1270 1825 l0 -95 90 0 90 0 0 95 0 95 -90 0 -90 0 0 -95z m125 40
c29 -28 31 -42 9 -73 -10 -14 -25 -22 -44 -22 -58 0 -78 83 -27 108 32 15 35
15 62 -13z"/>
<path d="M2133 2019 c-33 -10 -73 -55 -73 -83 0 -14 16 -16 115 -16 106 0 115
2 115 19 0 30 -38 70 -78 81 -20 5 -39 10 -42 9 -3 0 -19 -5 -37 -10z"/>
<path d="M758 1384 c-26 -14 -58 -60 -58 -84 0 -11 222 -15 233 -4 12 13 -17
65 -48 84 -38 23 -89 25 -127 4z"/>
<path d="M1284 1391 c-28 -12 -64 -59 -64 -82 0 -17 9 -19 115 -19 108 0 115
1 115 20 0 11 -13 34 -28 51 -21 24 -38 32 -72 35 -25 2 -55 0 -66 -5z"/>
<path d="M1824 1371 c-83 -51 -85 -200 -2 -251 52 -32 111 -27 154 13 67 61
67 166 -1 226 -43 37 -102 42 -151 12z"/>
<path d="M2346 1368 c-19 -18 -37 -43 -41 -55 -6 -23 -6 -23 114 -23 69 0 121
4 121 9 0 51 -61 101 -123 101 -28 0 -45 -8 -71 -32z"/>
</g>
</svg>
